<mxfile host="app.diagrams.net" modified="2023-03-14T13:30:01.084Z" agent="5.0 (Windows NT 10.0; Win64; x64) AppleWebKit/537.36 (KHTML, like Gecko) Chrome/111.0.0.0 Safari/537.36" etag="6XnCb1WxanyIUErR8hEW" version="21.0.6" type="github">
  <diagram id="C5RBs43oDa-KdzZeNtuy" name="Page-1">
    <mxGraphModel dx="880" dy="444" grid="1" gridSize="10" guides="1" tooltips="1" connect="1" arrows="1" fold="1" page="1" pageScale="1" pageWidth="827" pageHeight="1169" math="0" shadow="0">
      <root>
        <mxCell id="WIyWlLk6GJQsqaUBKTNV-0" />
        <mxCell id="WIyWlLk6GJQsqaUBKTNV-1" parent="WIyWlLk6GJQsqaUBKTNV-0" />
        <mxCell id="J86i0F-Cg0tUS2zLfKOL-7" style="edgeStyle=orthogonalEdgeStyle;rounded=0;orthogonalLoop=1;jettySize=auto;html=1;exitX=0.5;exitY=1;exitDx=0;exitDy=0;entryX=0.5;entryY=0;entryDx=0;entryDy=0;" edge="1" parent="WIyWlLk6GJQsqaUBKTNV-1" source="J86i0F-Cg0tUS2zLfKOL-0" target="J86i0F-Cg0tUS2zLfKOL-1">
          <mxGeometry relative="1" as="geometry" />
        </mxCell>
        <mxCell id="J86i0F-Cg0tUS2zLfKOL-0" value="mulai" style="ellipse;whiteSpace=wrap;html=1;" vertex="1" parent="WIyWlLk6GJQsqaUBKTNV-1">
          <mxGeometry x="390" y="30" width="100" height="50" as="geometry" />
        </mxCell>
        <mxCell id="J86i0F-Cg0tUS2zLfKOL-8" style="edgeStyle=orthogonalEdgeStyle;rounded=0;orthogonalLoop=1;jettySize=auto;html=1;exitX=0.5;exitY=1;exitDx=0;exitDy=0;entryX=0.5;entryY=0;entryDx=0;entryDy=0;" edge="1" parent="WIyWlLk6GJQsqaUBKTNV-1" source="J86i0F-Cg0tUS2zLfKOL-1" target="J86i0F-Cg0tUS2zLfKOL-2">
          <mxGeometry relative="1" as="geometry" />
        </mxCell>
        <mxCell id="J86i0F-Cg0tUS2zLfKOL-1" value="pilih produk / jasa" style="rounded=1;whiteSpace=wrap;html=1;absoluteArcSize=1;arcSize=14;strokeWidth=2;" vertex="1" parent="WIyWlLk6GJQsqaUBKTNV-1">
          <mxGeometry x="400" y="110" width="80" height="80" as="geometry" />
        </mxCell>
        <mxCell id="J86i0F-Cg0tUS2zLfKOL-9" style="edgeStyle=orthogonalEdgeStyle;rounded=0;orthogonalLoop=1;jettySize=auto;html=1;exitX=0.5;exitY=1;exitDx=0;exitDy=0;entryX=0.5;entryY=0;entryDx=0;entryDy=0;" edge="1" parent="WIyWlLk6GJQsqaUBKTNV-1" source="J86i0F-Cg0tUS2zLfKOL-2" target="J86i0F-Cg0tUS2zLfKOL-4">
          <mxGeometry relative="1" as="geometry" />
        </mxCell>
        <mxCell id="J86i0F-Cg0tUS2zLfKOL-2" value="memuat pesanan" style="rounded=1;whiteSpace=wrap;html=1;absoluteArcSize=1;arcSize=14;strokeWidth=2;" vertex="1" parent="WIyWlLk6GJQsqaUBKTNV-1">
          <mxGeometry x="400" y="220" width="80" height="80" as="geometry" />
        </mxCell>
        <mxCell id="J86i0F-Cg0tUS2zLfKOL-11" style="edgeStyle=orthogonalEdgeStyle;rounded=0;orthogonalLoop=1;jettySize=auto;html=1;exitX=0.5;exitY=1;exitDx=0;exitDy=0;entryX=0.5;entryY=0;entryDx=0;entryDy=0;" edge="1" parent="WIyWlLk6GJQsqaUBKTNV-1" source="J86i0F-Cg0tUS2zLfKOL-3" target="J86i0F-Cg0tUS2zLfKOL-6">
          <mxGeometry relative="1" as="geometry" />
        </mxCell>
        <mxCell id="J86i0F-Cg0tUS2zLfKOL-3" value="kirim desain" style="rounded=1;whiteSpace=wrap;html=1;absoluteArcSize=1;arcSize=14;strokeWidth=2;" vertex="1" parent="WIyWlLk6GJQsqaUBKTNV-1">
          <mxGeometry x="400" y="440" width="80" height="80" as="geometry" />
        </mxCell>
        <mxCell id="J86i0F-Cg0tUS2zLfKOL-10" style="edgeStyle=orthogonalEdgeStyle;rounded=0;orthogonalLoop=1;jettySize=auto;html=1;exitX=0.5;exitY=1;exitDx=0;exitDy=0;entryX=0.5;entryY=0;entryDx=0;entryDy=0;" edge="1" parent="WIyWlLk6GJQsqaUBKTNV-1" source="J86i0F-Cg0tUS2zLfKOL-4" target="J86i0F-Cg0tUS2zLfKOL-3">
          <mxGeometry relative="1" as="geometry" />
        </mxCell>
        <mxCell id="J86i0F-Cg0tUS2zLfKOL-4" value="isi data pesanan" style="rounded=1;whiteSpace=wrap;html=1;absoluteArcSize=1;arcSize=14;strokeWidth=2;" vertex="1" parent="WIyWlLk6GJQsqaUBKTNV-1">
          <mxGeometry x="400" y="330" width="80" height="80" as="geometry" />
        </mxCell>
        <mxCell id="J86i0F-Cg0tUS2zLfKOL-13" style="edgeStyle=orthogonalEdgeStyle;rounded=0;orthogonalLoop=1;jettySize=auto;html=1;exitX=0.5;exitY=1;exitDx=0;exitDy=0;entryX=0.5;entryY=0;entryDx=0;entryDy=0;" edge="1" parent="WIyWlLk6GJQsqaUBKTNV-1" source="J86i0F-Cg0tUS2zLfKOL-6" target="J86i0F-Cg0tUS2zLfKOL-12">
          <mxGeometry relative="1" as="geometry" />
        </mxCell>
        <mxCell id="J86i0F-Cg0tUS2zLfKOL-6" value="kirim bukti pembayaran" style="rounded=1;whiteSpace=wrap;html=1;absoluteArcSize=1;arcSize=14;strokeWidth=2;" vertex="1" parent="WIyWlLk6GJQsqaUBKTNV-1">
          <mxGeometry x="400" y="560" width="80" height="80" as="geometry" />
        </mxCell>
        <mxCell id="J86i0F-Cg0tUS2zLfKOL-12" value="selesai" style="ellipse;whiteSpace=wrap;html=1;" vertex="1" parent="WIyWlLk6GJQsqaUBKTNV-1">
          <mxGeometry x="390" y="690" width="100" height="50" as="geometry" />
        </mxCell>
      </root>
    </mxGraphModel>
  </diagram>
</mxfile>
